
        <svg xmlns="http://www.w3.org/2000/svg" xmlns:xlink="http://www.w3.org/1999/xlink" version="1.1" width="3205.4794520547944" 
        height="945.2054794520546" viewBox="0 0 3205.4794520547944 945.2054794520546">
			<rect fill="#ffffff" width="3205.4794520547944" height="945.2054794520546"/>
			<g transform="scale(10.273972602739725) translate(10, 10)">
				<defs id="SvgjsDefs20687"><linearGradient id="SvgjsLinearGradient20692"><stop id="SvgjsStop20693" stop-color="#2d388a" offset="0"></stop><stop id="SvgjsStop20694" stop-color="#00aeef" offset="1"></stop></linearGradient><linearGradient id="SvgjsLinearGradient20695"><stop id="SvgjsStop20696" stop-color="#2d388a" offset="0"></stop><stop id="SvgjsStop20697" stop-color="#00aeef" offset="1"></stop></linearGradient></defs><g id="SvgjsG20688" featureKey="symbolFeature-0" transform="matrix(0.8727518892532091,0,0,0.8727518892532091,-7.636404243542691,-7.635747542225265)" fill="url(#SvgjsLinearGradient20692)"><path xmlns="http://www.w3.org/2000/svg" d="M68.23,41H55.05L51.18,29.6a1.24,1.24,0,0,0-2.36,0L45,41H31.77a1.25,1.25,0,0,0-.8,2.21l10.3,8.59L35.79,67.84a1.25,1.25,0,0,0,2,1.36L50,59,62.22,69.2a1.25,1.25,0,0,0,1.51.07,1.25,1.25,0,0,0,.48-1.43L58.73,51.75,69,43.16a1.25,1.25,0,0,0-.8-2.21ZM50,33.88,52.41,41H47.59ZM35.22,43.45H44.1l-2,5.76Zm4.37,21,3.74-11,4.72,3.93Zm4.6-13.51,2.55-7.47h6.52l2.55,7.47L50,55.76ZM60.41,64.43l-8.46-7,4.72-3.93ZM57.86,49.21l-2-5.76h8.88Z"></path><path xmlns="http://www.w3.org/2000/svg" d="M88.75,31.17a10.11,10.11,0,0,0-9.32-10.06,41.2,41.2,0,0,0-53.31-4.73,6.61,6.61,0,0,0-9.37,9.23A40.79,40.79,0,0,0,8.75,50,41.25,41.25,0,1,0,88.2,34.43,10,10,0,0,0,88.75,31.17Zm-2.5,0a7.6,7.6,0,1,1-7.6-7.6A7.61,7.61,0,0,1,86.25,31.17ZM53.54,78.52a7.4,7.4,0,0,0-14.43-1.94A28.73,28.73,0,1,1,69,28.4a10.05,10.05,0,0,0,8.39,12.78A28.47,28.47,0,0,1,78.75,50,28.82,28.82,0,0,1,53.54,78.52Zm-2.49.33a4.9,4.9,0,1,1-4.9-4.9A4.91,4.91,0,0,1,51.05,78.85ZM21.93,17.38a4.12,4.12,0,1,1-4.12,4.12A4.12,4.12,0,0,1,21.93,17.38ZM88.75,50a38.75,38.75,0,0,1-77.5,0,38.34,38.34,0,0,1,7.4-22.76,6.54,6.54,0,0,0,3.28.88,6.63,6.63,0,0,0,5.8-9.82,38.72,38.72,0,0,1,48.41,3.1A10.18,10.18,0,0,0,70,26,31.23,31.23,0,1,0,38.76,79.13a7.4,7.4,0,0,0,14.45,1.94A31.17,31.17,0,0,0,80,41.18a10.09,10.09,0,0,0,6.67-3.83A38.74,38.74,0,0,1,88.75,50Z"></path></g><g id="SvgjsG20689" featureKey="nameFeature-0" transform="matrix(0.7055271424374425,0,0,0.7055271424374425,88.81101766606118,17.812189032097415)" fill="url(#SvgjsLinearGradient20695)"><path d="M12.36 14.64 c3.64 0 7.52 1.4 7.52 5.52 c0 0.96 -0.64 1.4 -1.32 1.4 s-1.4 -0.48 -1.4 -1.4 c0 -0.32 -0.2 -2.92 -4.8 -2.92 c-3.64 0 -5.24 1.44 -5.24 4.88 l0 9.64 c0 3.48 1.96 4.56 5.24 4.56 c3.32 0 5.16 -1.36 5.16 -4.6 c0 -0.92 0.68 -1.36 1.32 -1.36 c0.68 0 1.32 0.44 1.32 1.36 c0 5.4 -3 7.2 -7.8 7.2 c-5.2 0 -7.84 -1.92 -7.84 -7.16 l0 -9.64 c0 -5.68 2.84 -7.48 7.84 -7.48 z M32.236000000000004 31.72 l0 -9.92 c0 -4.8 2.48 -7.36 7.28 -7.36 l1.04 0 c4.76 0 7.28 2.56 7.28 7.36 l0 9.92 c0 4.4 -2.92 7.28 -7.28 7.28 l-1.04 0 c-4.44 0 -7.28 -2.92 -7.28 -7.28 z M39.516000000000005 36.32 l1.04 0 c2.88 0 4.6 -1.8 4.6 -4.6 l0 -9.92 c0 -3.12 -1.52 -4.72 -4.6 -4.72 l-1.04 0 c-3.04 0 -4.72 1.64 -4.72 4.72 l0 9.92 c0 2.92 1.84 4.6 4.72 4.6 z M59.872 35.36 c-0.88 -1.64 1.36 -2.84 2.4 -1.2 c0.52 0.84 2.08 2.28 4.56 2.28 c1.04 0 3.64 -0.76 4 -3.72 c0.24 -1.8 -1.48 -3.56 -4.44 -5.04 c-4.16 -1.96 -7.32 -3.68 -7.32 -7.12 c0 -4.08 3.44 -6 7.12 -6 c3.32 0 5.16 2.04 5.8 3.08 c0.92 1.48 -1.08 2.92 -2.2 1.48 c-0.56 -0.72 -1.64 -1.92 -3.6 -1.92 c-2.2 0 -4.48 1.04 -4.48 3.36 c0 1.84 2.04 2.88 5.08 4.32 c3.56 1.76 7.28 3.48 6.72 8.16 c-0.44 3.68 -3.24 6.04 -6.68 6.04 c-2.6 0 -5.8 -1.4 -6.96 -3.72 z M102.62800000000001 37.52 l0 -17.84 l-6.36 18 c-0.36 1 -1.68 1.24 -2.08 0 l-6.16 -18 l0 17.84 c0 0.84 -0.64 1.28 -1.32 1.28 s-1.36 -0.44 -1.36 -1.28 l0 -21.48 c0 -0.76 0.56 -1.32 1.36 -1.32 l1.28 0 c0.88 0 1.36 0.64 1.56 1.24 c1.92 5.72 3.68 10.8 5.64 16.56 l5.8 -16.68 c0.2 -0.56 0.56 -1.12 1.4 -1.12 l1.6 0 c1.16 0 1.32 0.64 1.32 1.28 l0 21.52 c0 0.84 -0.68 1.28 -1.36 1.28 s-1.32 -0.44 -1.32 -1.28 z  M118.38400000000001 37.56 l0 -21.56 c0 -0.84 0.64 -1.28 1.28 -1.28 s1.32 0.44 1.32 1.28 l0 21.56 c0 1.72 -2.6 1.72 -2.6 0 z M141.26 14.64 c3.64 0 7.52 1.4 7.52 5.52 c0 0.96 -0.64 1.4 -1.32 1.4 s-1.4 -0.48 -1.4 -1.4 c0 -0.32 -0.2 -2.92 -4.8 -2.92 c-3.64 0 -5.24 1.44 -5.24 4.88 l0 9.64 c0 3.48 1.96 4.56 5.24 4.56 c3.32 0 5.16 -1.36 5.16 -4.6 c0 -0.92 0.68 -1.36 1.32 -1.36 c0.68 0 1.32 0.44 1.32 1.36 c0 5.4 -3 7.2 -7.8 7.2 c-5.2 0 -7.84 -1.92 -7.84 -7.16 l0 -9.64 c0 -5.68 2.84 -7.48 7.84 -7.48 z M161.336 31.72 l0 -15.72 c0 -0.84 0.68 -1.28 1.32 -1.28 c0.68 0 1.32 0.44 1.32 1.28 l0 15.72 c0 2.88 1.96 4.6 4.68 4.6 l1 0 c2.8 0 4.72 -1.96 4.72 -4.6 l0 -15.72 c0 -0.84 0.64 -1.28 1.32 -1.28 c0.64 0 1.32 0.44 1.32 1.28 l0 15.72 c0 4.12 -2.92 7.28 -7.36 7.28 l-1 0 c-4.44 0 -7.32 -3.08 -7.32 -7.28 z M202.812 20.56 l0 5 c0 4.76 -2.48 6.28 -6.68 6.28 l-3.72 0 l0 5.68 c0 0.84 -0.68 1.28 -1.32 1.28 c-0.68 0 -1.32 -0.44 -1.32 -1.28 l0 -21.48 c0 -0.76 0.64 -1.32 1.32 -1.32 l5.4 0 c2.2 0 6.32 0.44 6.32 5.84 z M196.49200000000002 17.4 l-4.08 0 l0 11.72 l3.72 0 c1.96 0 4.08 -0.48 4.04 -3.6 l-0.04 -4.96 c0 -0.96 -0.16 -3.16 -3.64 -3.16 z M214.08800000000002 37.52 l0 -21.52 c0 -0.84 0.64 -1.28 1.28 -1.28 s1.32 0.44 1.32 1.28 l0 20.12 l7.96 0 c0.88 0 1.36 0.68 1.36 1.36 s-0.48 1.32 -1.36 1.32 l-9.24 0 c-0.8 0 -1.32 -0.64 -1.32 -1.28 z M236.924 37.56 l0 -21.56 c0 -0.84 0.64 -1.28 1.28 -1.28 s1.32 0.44 1.32 1.28 l0 21.56 c0 1.72 -2.6 1.72 -2.6 0 z M252.52 37.52 l0 -21.52 c0 -0.96 0.76 -1.28 1.32 -1.28 l9.2 0 c0.88 0 1.32 0.64 1.32 1.32 s-0.44 1.36 -1.32 1.36 l-7.88 0 l0 7.76 l6.28 0 c0.88 0 1.36 0.68 1.36 1.36 s-0.48 1.36 -1.36 1.36 l-6.28 0 l0 9.64 c0 0.84 -0.68 1.28 -1.32 1.28 c-0.68 0 -1.32 -0.44 -1.32 -1.28 z M274.676 14.719999999999999 l12.08 0 c0.84 0 1.24 0.68 1.24 1.36 s-0.4 1.32 -1.24 1.32 l-4.56 0 l0 20.12 c0 0.84 -0.68 1.28 -1.36 1.28 s-1.32 -0.44 -1.32 -1.28 l0 -20.12 l-4.84 0 c-0.84 0 -1.24 -0.64 -1.24 -1.32 s0.4 -1.36 1.24 -1.36 z"></path></g>
			</g>
		</svg>
	